<svg xmlns="http://www.w3.org/2000/svg" width="55.041" height="68.21" viewBox="0 0 55.041 68.21">
  <g id="Rocket" transform="translate(17533.916 -26055.799) rotate(-105)">
    <path id="Path_3164" data-name="Path 3164" d="M88.463,124.567a1.5,1.5,0,0,1-.49-2.435,144.552,144.552,0,0,0,13.511-15.955c4.085-6.036,8.814-17.738,9.715-21.17,0,0,17.176,12.272,4.209,30.356-10.2,14.221-22.257,11.161-26.944,9.2" transform="translate(-20778.74 -23772.365)" fill="#e23b34"/>
    <path id="Path_3165" data-name="Path 3165" d="M88.435,124.54l.156-.375a1.087,1.087,0,0,1-.357-1.774,144.885,144.885,0,0,0,13.557-16.013,79.681,79.681,0,0,0,6.087-11.625,82.175,82.175,0,0,0,3.684-9.67l-.393-.1-.236.33s.053.038.16.12a25.1,25.1,0,0,1,6.264,7.342,18.673,18.673,0,0,1,2.451,9.617c-.1,3.746-1.393,8.012-4.761,12.71a27.481,27.481,0,0,1-8.878,8.285,20.033,20.033,0,0,1-17.58.781l-.156.375-.156.374a20.846,20.846,0,0,0,18.286-.821,28.3,28.3,0,0,0,9.145-8.522c3.448-4.806,4.808-9.243,4.912-13.162a19.48,19.48,0,0,0-2.553-10.032,25.543,25.543,0,0,0-6.663-7.728.406.406,0,0,0-.629.227,81.732,81.732,0,0,1-3.642,9.548,78.942,78.942,0,0,1-6.016,11.5,144.324,144.324,0,0,1-13.464,15.9,1.9,1.9,0,0,0,.623,3.1Z" transform="translate(-20778.713 -23772.338)" fill="#070805"/>
    <path id="Path_3166" data-name="Path 3166" d="M93.086,119.47c-1.847,2.072-3.565,3.907-4.8,5.158a1.088,1.088,0,0,0,.357,1.775l-.157.375.157-.375a21.567,21.567,0,0,0,8.191,1.67,19.009,19.009,0,0,0,7.485-1.523c-4.961-2.877-8.773-5.382-11.237-7.081" transform="translate(-20778.77 -23774.576)" fill="#df2726"/>
    <path id="Path_3167" data-name="Path 3167" d="M88,124.3l-.024.024a1.5,1.5,0,0,0,.357,2.372,1.5,1.5,0,0,1-.357-2.372L88,124.3m.026-.027L88,124.3l.022-.022m.025-.025-.023.023.023-.023m.024-.024-.015.015.015-.015m.025-.027-.014.015.014-.015m.026-.025-.019.018.019-.018m.027-.028-.008.008.008-.008m.027-.028-.015.015.015-.015m.058-.059-.051.051.051-.051m4.485-4.838c-1.7,1.907-3.288,3.61-4.482,4.835,1.194-1.224,2.782-2.927,4.483-4.835h0" transform="translate(-20778.742 -23774.561)" fill="#070805"/>
    <path id="Path_3168" data-name="Path 3168" d="M88.618,126.388l-.156.375a21.929,21.929,0,0,0,8.327,1.695,19.449,19.449,0,0,0,7.93-1.677l-.424-.245a19.011,19.011,0,0,1-7.486,1.523,21.575,21.575,0,0,1-8.191-1.67m4.1-7.167c-1.7,1.907-3.289,3.61-4.483,4.834l0,0-.051.051-.007.007-.015.016-.012.012-.009.009-.019.019-.018.019-.007.007-.014.015-.012.011-.015.016-.009.008-.023.024v0L88,124.3,88,124.3l-.024.024a1.5,1.5,0,0,0,.357,2.371,1.447,1.447,0,0,0,.133.064l.156-.375a1.087,1.087,0,0,1-.357-1.774c1.232-1.252,2.95-3.087,4.8-5.159l-.337-.233" transform="translate(-20778.742 -23774.561)" fill="#070805"/>
    <path id="Path_3169" data-name="Path 3169" d="M93.709,119.143l-.272.306c2.463,1.7,6.276,4.2,11.237,7.081.153-.066.308-.133.461-.2-5.049-2.917-8.926-5.461-11.426-7.184" transform="translate(-20779.119 -23774.555)" fill="#df2726"/>
    <path id="Path_3170" data-name="Path 3170" d="M93.348,118.894l-.272.306h0l.272-.306Z" transform="translate(-20779.098 -23774.539)" fill="#070805"/>
    <path id="Path_3171" data-name="Path 3171" d="M105.111,126.312q-.23.105-.46.2l.424.245c.152-.066.3-.136.455-.208l-.034-.019-.385-.222M93.349,118.9l-.272.306.337.233.272-.306-.337-.233" transform="translate(-20779.098 -23774.539)" fill="#070805"/>
    <path id="Path_3172" data-name="Path 3172" d="M92.627,109.63l-9.8-3.887,3.856-1.139-5.294-5.053,4.449-.969s-4.786-5.335-6.211-8.206l12.935,2.648-1.213-3.988,8.2,4.606.566-3.477,3.274,5.009Z" transform="translate(-20778.232 -23772.623)" fill="#ffd729"/>
    <path id="Path_3173" data-name="Path 3173" d="M92.576,109.572l.15-.377-8.706-3.453,3.4-1.005-5.248-5.009,4.383-.955-.466-.519s-.27-.3-.7-.8a52.732,52.732,0,0,1-5.249-6.941c-.071-.128-.137-.253-.2-.372l-.363.181-.082.4L93.1,93.5l-1.117-3.672,7.828,4.395.491-3.016,2.546,3.895-10.6,14.227.326.242.15-.377-.15.377.326.242,10.936-14.682-4-6.121-.641,3.935L90.617,88.13l1.308,4.3L78.844,89.754l.37.745c.065.131.136.267.212.4a39.743,39.743,0,0,0,3.654,5.071c1.3,1.595,2.4,2.818,2.405,2.822l.3-.271-.087-.4-5.2,1.13,5.34,5.1-4.311,1.273,11.182,4.436.186-.25Z" transform="translate(-20778.184 -23772.564)" fill="#070805"/>
    <path id="Path_3174" data-name="Path 3174" d="M95.581,106.616l-5.558-2.327,2.148-.863L88.846,99.2s2.44-.041,2.036-.474-3.688-3.692-3.688-3.692L92.712,96.4l.644-1.5,3.105,2.049.63-1.824,3.8,4.778Z" transform="translate(-20778.719 -23773)" fill="#0088ca"/>
    <path id="Path_3175" data-name="Path 3175" d="M95.553,106.588l.157-.374-4.645-1.946,1.23-.494a.405.405,0,0,0,.168-.628l-3.325-4.222-.319.252.007.406s.4-.007.858-.043c.229-.019.473-.045.7-.082a2.051,2.051,0,0,0,.615-.183.62.62,0,0,0,.251-.243.509.509,0,0,0-.006-.484l-.089-.121c-.216-.231-1.131-1.146-2.005-2.019s-1.693-1.684-1.694-1.684l-.285.288-.1.394,5.518,1.367a.407.407,0,0,0,.471-.235l.452-1.057,2.7,1.78a.4.4,0,0,0,.354.046.4.4,0,0,0,.254-.252L97.2,95.93l3.138,3.947-5.108,6.459.318.252.157-.374-.157.374.319.252,5.307-6.712a.405.405,0,0,0,0-.5l-3.8-4.778a.406.406,0,0,0-.7.12l-.46,1.33-2.668-1.76a.4.4,0,0,0-.6.18L92.446,95.9l-5.183-1.284a.406.406,0,0,0-.384.682s.821.815,1.692,1.684,1.8,1.8,1.986,2l.145-.136-.173.1.028.039.145-.135-.173.1.27-.15-.27-.144v.294l.27-.15-.27-.144.225.12-.168-.192-.056.072.225.12-.168-.192.056.064-.041-.075-.015.011.056.064-.041-.075a1.55,1.55,0,0,1-.357.093,9.27,9.27,0,0,1-.932.095c-.288.016-.5.019-.5.02a.406.406,0,0,0-.313.657l2.99,3.8-1.645.661a.406.406,0,0,0-.006.751l5.558,2.328a.406.406,0,0,0,.476-.124Z" transform="translate(-20778.691 -23772.973)" fill="#070805"/>
    <path id="Path_3176" data-name="Path 3176" d="M137.218,132.291c2.514-2.7-7.078-19.085-16.538-28.572-6.57-6.588-10.661-9.679-12.548-10.952a1.5,1.5,0,0,0-2.053.371L91.154,113.891a1.5,1.5,0,0,0,.337,2.094,161.409,161.409,0,0,0,13.864,8.856c11.307,6.5,28.613,10.936,31.863,7.45" transform="translate(-20778.955 -23772.846)" fill="#fff"/>
    <path id="Path_3177" data-name="Path 3177" d="M137.19,132.264l.3.277A2.411,2.411,0,0,0,138,130.8a12.555,12.555,0,0,0-1-3.971,44.885,44.885,0,0,0-2.545-5.281,88.267,88.267,0,0,0-13.52-18.142c-6.585-6.6-10.695-9.711-12.608-11a1.9,1.9,0,0,0-2.61.47L90.8,113.626a1.907,1.907,0,0,0,.429,2.661,161.686,161.686,0,0,0,13.9,8.878,76.683,76.683,0,0,0,18.026,7.254,44.986,44.986,0,0,0,8.087,1.424,10.553,10.553,0,0,0,5.486-.719,3.026,3.026,0,0,0,.764-.584l-.3-.277-.3-.277a2.272,2.272,0,0,1-.564.428,9.882,9.882,0,0,1-5.039.618c-6.8-.437-17.814-4-25.761-8.57A161.054,161.054,0,0,1,91.7,115.629a1.08,1.08,0,0,1-.315-.355,1.1,1.1,0,0,1,.07-1.174l14.926-20.753a1.09,1.09,0,0,1,1.5-.271c1.859,1.255,5.932,4.329,12.488,10.9a87.523,87.523,0,0,1,13.384,17.962,37.01,37.01,0,0,1,3,6.619,8.7,8.7,0,0,1,.437,2.256,1.648,1.648,0,0,1-.3,1.17Z" transform="translate(-20778.928 -23772.818)" fill="#070805"/>
    <path id="Path_3178" data-name="Path 3178" d="M137.218,132.291c2.514-2.7-7.078-19.085-16.538-28.572-6.57-6.588-10.661-9.679-12.548-10.952a1.5,1.5,0,0,0-2.053.371L91.154,113.891a1.5,1.5,0,0,0,.337,2.094,161.409,161.409,0,0,0,13.864,8.856c11.307,6.5,28.613,10.936,31.863,7.45" transform="translate(-20778.955 -23772.846)" fill="#fff"/>
    <path id="Path_3179" data-name="Path 3179" d="M137.19,132.264l.3.277A2.411,2.411,0,0,0,138,130.8a12.555,12.555,0,0,0-1-3.971,44.885,44.885,0,0,0-2.545-5.281,88.267,88.267,0,0,0-13.52-18.142c-6.585-6.6-10.695-9.711-12.608-11a1.9,1.9,0,0,0-2.61.47L90.8,113.626a1.907,1.907,0,0,0,.429,2.661,161.686,161.686,0,0,0,13.9,8.878,76.683,76.683,0,0,0,18.026,7.254,44.986,44.986,0,0,0,8.087,1.424,10.553,10.553,0,0,0,5.486-.719,3.026,3.026,0,0,0,.764-.584l-.3-.277-.3-.277a2.272,2.272,0,0,1-.564.428,9.882,9.882,0,0,1-5.039.618c-6.8-.437-17.814-4-25.761-8.57A161.054,161.054,0,0,1,91.7,115.629a1.08,1.08,0,0,1-.315-.355,1.1,1.1,0,0,1,.07-1.174l14.926-20.753a1.09,1.09,0,0,1,1.5-.271c1.859,1.255,5.932,4.329,12.488,10.9a87.523,87.523,0,0,1,13.384,17.962,37.01,37.01,0,0,1,3,6.619,8.7,8.7,0,0,1,.437,2.256,1.648,1.648,0,0,1-.3,1.17Z" transform="translate(-20778.928 -23772.818)" fill="#070805"/>
    <path id="Path_3180" data-name="Path 3180" d="M124.4,123.561c-2.587,3.211-2.5,5.212-3.268,8.871,8.247,2.683,15.983,3.68,18.041,1.472,1.574-1.687-1.631-8.78-6.569-16.152-.737.346-5.765,2.781-8.2,5.81" transform="translate(-20780.896 -23774.467)" fill="#e23b34"/>
    <path id="Path_3181" data-name="Path 3181" d="M124.373,123.533l-.316-.255a12.163,12.163,0,0,0-2.39,4.408c-.41,1.4-.579,2.823-.959,4.634a.407.407,0,0,0,.272.47,58.633,58.633,0,0,0,10.564,2.493,22.552,22.552,0,0,0,4.158.178,7.237,7.237,0,0,0,2.983-.728,3.027,3.027,0,0,0,.759-.58,2.394,2.394,0,0,0,.511-1.731,12.452,12.452,0,0,0-.991-3.943,44.543,44.543,0,0,0-2.526-5.243c-1.015-1.831-2.209-3.775-3.523-5.739a.4.4,0,0,0-.51-.141c-.25.118-.971.465-1.917.988a23.07,23.07,0,0,0-6.431,4.935l.316.255.316.255a22.368,22.368,0,0,1,6.192-4.733c.925-.512,1.631-.852,1.869-.964l-.173-.367-.338.226c1.3,1.947,2.485,3.872,3.488,5.68a36.749,36.749,0,0,1,2.981,6.57,8.634,8.634,0,0,1,.434,2.239,1.632,1.632,0,0,1-.293,1.159,2.227,2.227,0,0,1-.559.424,6.48,6.48,0,0,1-2.644.628c-3.408.23-8.8-.8-14.416-2.633l-.125.387.4.083c.386-1.848.558-3.259.943-4.572a11.334,11.334,0,0,1,2.243-4.127Z" transform="translate(-20780.869 -23774.438)" fill="#070805"/>
    <path id="Path_3182" data-name="Path 3182" d="M115.762,113.608a2.563,2.563,0,0,1,3.781.915c.865,1.562.736,3.973-.647,4.739a2.744,2.744,0,0,1-4.072-1.439c-.689-1.647-.446-3.449.938-4.215" transform="translate(-20780.467 -23774.17)" fill="#0088ca"/>
    <path id="Path_3183" data-name="Path 3183" d="M115.734,113.58l.2.356a2.716,2.716,0,0,1,1.811-.372,2.069,2.069,0,0,1,1.419,1.13,4.247,4.247,0,0,1,.471,2.427,2.194,2.194,0,0,1-.959,1.759,2.645,2.645,0,0,1-1.8.314,2.258,2.258,0,0,1-1.524-1.2,3.578,3.578,0,0,1-.171-.355,3.884,3.884,0,0,1-.284-2.2,2.1,2.1,0,0,1,1.043-1.5l-.2-.356-.2-.355a2.923,2.923,0,0,0-1.447,2.054,4.69,4.69,0,0,0,.332,2.673,4.464,4.464,0,0,0,.21.435,3.08,3.08,0,0,0,2.069,1.6,3.456,3.456,0,0,0,2.365-.4,2.99,2.99,0,0,0,1.373-2.383,5.046,5.046,0,0,0-.568-2.909,2.888,2.888,0,0,0-1.974-1.533,3.513,3.513,0,0,0-2.36.46Z" transform="translate(-20780.441 -23774.143)" fill="#070805"/>
    <path id="Path_3184" data-name="Path 3184" d="M117.411,113.583a2.979,2.979,0,0,0-1.424.408,2.1,2.1,0,0,0-1.043,1.5,3.884,3.884,0,0,0,.284,2.2,3.381,3.381,0,0,0,.171.355,2.195,2.195,0,0,0,1.99,1.247,2.785,2.785,0,0,0,1.338-.362,2.114,2.114,0,0,0,.941-1.606,1.162,1.162,0,0,1-.368.324,1.929,1.929,0,0,1-.927.249,1.665,1.665,0,0,1-1.556-1.139,1.964,1.964,0,0,1,.562-2.577,2.018,2.018,0,0,1,.971-.275c.051,0,.1,0,.151.007a1.851,1.851,0,0,0-.7-.3,2,2,0,0,0-.386-.037" transform="translate(-20780.496 -23774.197)" fill="#0075b1"/>
    <path id="Path_3185" data-name="Path 3185" d="M118.841,119.293l-.024.013.024-.013m.07-.038-.015.008.015-.008m.016-.009-.012.007.012-.007m.049-.029-.046.028.046-.028m.016-.01-.015.01.015-.01m.046-.03-.046.03.046-.03m.015-.01-.014.01.014-.01m.029-.021-.029.021.029-.021m.013-.009-.01.007.01-.007m.014-.01-.009.007.009-.007m.014-.011-.009.007.009-.007m.015-.011,0,0,0,0m.011-.008h0m-4.7-3.032a4.6,4.6,0,0,0,.372,1.761,2.706,2.706,0,0,0,2.536,1.852,3.166,3.166,0,0,0,1.414-.349,3.166,3.166,0,0,1-1.413.349,2.706,2.706,0,0,1-2.537-1.852,4.6,4.6,0,0,1-.372-1.761m5.048-1.613.006.01-.006-.01m-3.652-.888-.024.013.024-.013m1.521-.412a3.336,3.336,0,0,0-1.5.4,3.336,3.336,0,0,1,1.5-.4m.012,0h0" transform="translate(-20780.469 -23774.17)" fill="#070805"/>
    <path id="Path_3186" data-name="Path 3186" d="M117.382,113.149h-.012a3.336,3.336,0,0,0-1.5.4l-.016.007-.024.013-.063.035c-.06.033-.117.067-.172.1a2.71,2.71,0,0,0-1.137,2.35,4.6,4.6,0,0,0,.372,1.761,2.706,2.706,0,0,0,2.537,1.852,3.166,3.166,0,0,0,1.413-.349l.041-.021.024-.013.055-.03.015-.008,0,0,.012-.007h0l.046-.028h0l.015-.01.046-.03h0l.014-.01.029-.021,0,0,.01-.007,0,0,.009-.007,0,0,.009-.007.011-.008,0,0,.009-.007h0a3.5,3.5,0,0,0,.8-3.467,2.276,2.276,0,0,1-.312,1.674,2.117,2.117,0,0,1-.94,1.606,2.791,2.791,0,0,1-1.339.362,2.2,2.2,0,0,1-1.99-1.247,3.574,3.574,0,0,1-.171-.355,3.892,3.892,0,0,1-.285-2.2,2.107,2.107,0,0,1,1.043-1.5,2.982,2.982,0,0,1,1.424-.408,2.013,2.013,0,0,1,.387.037,1.864,1.864,0,0,1,.7.3,1.474,1.474,0,0,1,1.12.744l-.049-.11c-.012-.022-.024-.043-.037-.065l-.006-.01a2.392,2.392,0,0,0-2.1-1.3Z" transform="translate(-20780.469 -23774.17)" fill="#070805"/>
    <path id="Path_3187" data-name="Path 3187" d="M96.473,101.04c.969-1.232,9.711,4.463,11.29,5.713,1.964,1.556,2.705,4.19,1.893,5.16s-3.23.871-5.536-1.052c-1.547-1.29-8.88-8.251-7.647-9.822" transform="translate(-20779.307 -23773.383)" fill="#e23b34"/>
    <path id="Path_3188" data-name="Path 3188" d="M96.446,101.012l.319.251-.036-.028.029.035.007-.007-.036-.028.029.035h0v0h0v0a1.019,1.019,0,0,1,.541.019,11.346,11.346,0,0,1,2.4.951,60.792,60.792,0,0,1,7.782,4.8,5.858,5.858,0,0,1,1.465,1.734,4.69,4.69,0,0,1,.585,1.743,1.508,1.508,0,0,1-.216,1.1,1.009,1.009,0,0,1-.293.236,2.781,2.781,0,0,1-1.919.111,6.809,6.809,0,0,1-2.752-1.451c-.578-.482-2.043-1.829-3.53-3.373a26.224,26.224,0,0,1-3.71-4.568,3.4,3.4,0,0,1-.379-.923c-.046-.241-.007-.348.031-.395l-.319-.251-.32-.251a1.267,1.267,0,0,0-.189,1.053,4.15,4.15,0,0,0,.466,1.16,26.77,26.77,0,0,0,3.835,4.737c1.511,1.568,2.976,2.917,3.595,3.433a7.618,7.618,0,0,0,3.088,1.619,3.56,3.56,0,0,0,2.5-.193,1.815,1.815,0,0,0,.522-.425,2.282,2.282,0,0,0,.4-1.705,5.462,5.462,0,0,0-.683-2.056,6.634,6.634,0,0,0-1.67-1.977,60.539,60.539,0,0,0-5.684-3.684,32.162,32.162,0,0,0-3.464-1.773,7.976,7.976,0,0,0-1.377-.456,1.617,1.617,0,0,0-1.1.066.785.785,0,0,0-.239.2Z" transform="translate(-20779.277 -23773.354)" fill="#070805"/>
    <path id="Path_3189" data-name="Path 3189" d="M96.973,101.3a.453.453,0,0,0-.155.021c-.037.05-.073.157-.028.391a3.385,3.385,0,0,0,.379.923,26.188,26.188,0,0,0,3.71,4.568c1.488,1.544,2.952,2.891,3.53,3.373a6.8,6.8,0,0,0,2.752,1.451,3.9,3.9,0,0,0,.9.11,2.111,2.111,0,0,0,1.023-.222,1.023,1.023,0,0,0,.293-.235,1.044,1.044,0,0,0,.209-.529Z" transform="translate(-20779.334 -23773.412)" fill="#df2726"/>
    <path id="Path_3190" data-name="Path 3190" d="M96.473,101.052h0c-.442.562.216,1.817,1.314,3.256-1.1-1.438-1.756-2.693-1.314-3.256" transform="translate(-20779.307 -23773.395)" fill="#070805"/>
    <path id="Path_3191" data-name="Path 3191" d="M97.887,104.531h0c.037.049.075.1.113.147-.038-.049-.076-.1-.113-.147" transform="translate(-20779.406 -23773.617)" fill="#070805"/>
    <path id="Path_3192" data-name="Path 3192" d="M108.541,113.2h0Zm1.622-.572a2.1,2.1,0,0,1-1.592.572,2.1,2.1,0,0,0,1.592-.572m.017-.019-.009.01.009-.01m-5.379-.945.031.025-.031-.025m-.147-.12c.02.017.041.034.06.051-.019-.017-.04-.034-.06-.051" transform="translate(-20779.84 -23774.068)" fill="#070805"/>
    <path id="Path_3193" data-name="Path 3193" d="M96.573,100.991l-.1.057c-.442.562.217,1.817,1.314,3.255.037.05.076.1.114.148a53.606,53.606,0,0,0,6.219,6.418l.062.051.085.069.033.025a6.3,6.3,0,0,0,3.708,1.51h.03a2.1,2.1,0,0,0,1.593-.572l.007-.008.009-.011.01-.011a1.372,1.372,0,0,0,.245-.517l-.348-.272a1.048,1.048,0,0,1-.209.528,1.034,1.034,0,0,1-.293.236,2.121,2.121,0,0,1-1.023.222,3.955,3.955,0,0,1-.9-.11,6.806,6.806,0,0,1-2.751-1.451c-.579-.483-2.043-1.83-3.531-3.374a26.168,26.168,0,0,1-3.709-4.567,3.366,3.366,0,0,1-.38-.924c-.045-.234-.009-.342.028-.39a.448.448,0,0,1,.155-.022Z" transform="translate(-20779.307 -23773.391)" fill="#070805"/>
    <path id="Path_3194" data-name="Path 3194" d="M96.893,107.66l-.248.3L91.511,115.1a1.094,1.094,0,0,0,.245,1.529c1.627,1.178,4.882,3.448,9.514,6.276,1.489.861,3.086,1.78,4.762,2.743a67.339,67.339,0,0,0,6.161,3.1c2.2.953,4.472,1.813,6.71,2.551.326-1.623.5-2.936.878-4.234a11.1,11.1,0,0,1,1-2.395c-2.909-1.706-5.783-3.512-8.366-5.341-7.166-5.074-12.31-8.94-14.588-10.675a3.606,3.606,0,0,1-.938-1" transform="translate(-20778.982 -23773.818)" fill="#d9dcdf"/>
    <path id="Path_3195" data-name="Path 3195" d="M92.62,113.161l-1.635,1.989a1.5,1.5,0,0,0,.335,2.1c.337.243.762.53,1.268.856-.428-.3-.8-.565-1.109-.791a1.5,1.5,0,0,1-.337-2.1Z" transform="translate(-20778.943 -23774.17)" fill="#070805"/>
    <path id="Path_3196" data-name="Path 3196" d="M112.165,128.771c2.169.963,4.438,1.855,6.695,2.629,0-.026.01-.052.015-.079-2.238-.737-4.509-1.6-6.71-2.55M96.617,107.982l-3.986,4.847-1.478,2.054a1.5,1.5,0,0,0,.336,2.1q.467.338,1.11.792c1.9,1.225,4.935,3.011,8.642,5.155-4.631-2.828-7.886-5.1-9.514-6.276a1.094,1.094,0,0,1-.245-1.529l5.134-7.139" transform="translate(-20778.957 -23773.84)" fill="#070805"/>
    <path id="Path_3197" data-name="Path 3197" d="M123.434,126.275a10.329,10.329,0,0,0-.926,2.213c-.361,1.228-.534,2.54-.871,4.215a46.956,46.956,0,0,0,13.073,2.553c.349,0,.683-.01,1-.032a6.49,6.49,0,0,0,2.644-.627,2.561,2.561,0,0,0,.38-.256c-3.865-1.879-9.607-4.767-15.3-8.066" transform="translate(-20780.93 -23775.012)" fill="#df2726"/>
    <path id="Path_3198" data-name="Path 3198" d="M122.678,125.838a11.172,11.172,0,0,0-1.005,2.395c-.379,1.3-.552,2.611-.877,4.234l.388.127c.534-2.659.658-4.441,1.845-6.551l-.351-.2" transform="translate(-20780.877 -23774.984)" fill="#070805"/>
    <path id="Path_3199" data-name="Path 3199" d="M140.316,135.1c-.044.043-.091.084-.139.124.059-.035.116-.071.172-.109l-.033-.016" transform="translate(-20782.119 -23775.578)" fill="#070805"/>
    <path id="Path_3200" data-name="Path 3200" d="M120.795,132.921c-.006.026-.01.052-.016.078.129.045.259.089.388.132.006-.027.011-.055.016-.082l-.388-.127" transform="translate(-20780.875 -23775.439)" fill="#070805"/>
    <path id="Path_3201" data-name="Path 3201" d="M123.054,126.057c-1.187,2.109-1.309,3.892-1.844,6.551l-.017.082c5.033,1.7,9.976,2.8,13.584,2.8a8.383,8.383,0,0,0,4.181-.844c.049-.04.1-.081.139-.124l-.395-.191a2.559,2.559,0,0,1-.38.256,6.486,6.486,0,0,1-2.644.627c-.316.022-.65.032-1,.032a46.955,46.955,0,0,1-13.074-2.553c.337-1.675.511-2.987.871-4.215a10.377,10.377,0,0,1,.926-2.213l-.351-.2" transform="translate(-20780.9 -23775)" fill="#070805"/>
  </g>
</svg>
