<svg xmlns="http://www.w3.org/2000/svg" xmlns:xlink="http://www.w3.org/1999/xlink" width="214" height="56" viewBox="0 0 214 56">
  <defs>
    <clipPath id="clip-path">
      <rect id="Rectangle_4632" data-name="Rectangle 4632" width="214" height="56" transform="translate(0 0)" fill="#0e2e47"/>
    </clipPath>
  </defs>
  <g id="Logo" transform="translate(0.12 -0.091)">
    <g id="Group_5215" data-name="Group 5215" transform="translate(-0.119 0.09)" clip-path="url(#clip-path)">
      <path id="Path_3077" data-name="Path 3077" d="M192.6,17.463a16.542,16.542,0,0,0-5.326,4.92V0h-7.836V55.58h7.836V31.7a8.358,8.358,0,0,1,1.37-4.657,10.071,10.071,0,0,1,3.727-3.38,11.161,11.161,0,0,1,5.4-1.277,7.816,7.816,0,0,1,5.1,1.052,6.845,6.845,0,0,1,2.586,3.529,15.921,15.921,0,0,1,.762,5.108V55.58h7.836V31.546a26.758,26.758,0,0,0-1.179-8.187,11.364,11.364,0,0,0-4.147-5.858q-2.967-2.178-8.369-2.179a14.574,14.574,0,0,0-7.759,2.141m-22.062,4.169a15.705,15.705,0,0,0-6.923-4.807,23.11,23.11,0,0,0-7.76-1.5,17.711,17.711,0,0,0-7,1.39,13.265,13.265,0,0,0-5.288,3.9,9.375,9.375,0,0,0-2.015,6.047,9.864,9.864,0,0,0,2.092,6.646,13.728,13.728,0,0,0,5.25,3.756,53.848,53.848,0,0,0,6.427,2.216,41.378,41.378,0,0,1,4.033,1.164,8.35,8.35,0,0,1,2.928,1.652,3.636,3.636,0,0,1,1.1,2.816,4.146,4.146,0,0,1-1.028,2.967,5.956,5.956,0,0,1-2.472,1.578,8.979,8.979,0,0,1-2.89.488,14.228,14.228,0,0,1-6.429-1.315,15.4,15.4,0,0,1-4.68-3.642L140.568,49.5a16.074,16.074,0,0,0,7.189,5.3,24.841,24.841,0,0,0,8.559,1.54,17.836,17.836,0,0,0,6.961-1.389,13.377,13.377,0,0,0,5.4-4.018,9.816,9.816,0,0,0,2.092-6.309,10.214,10.214,0,0,0-1.94-6.648,12.413,12.413,0,0,0-4.906-3.605,47.141,47.141,0,0,0-6.087-2.065,33.366,33.366,0,0,1-5.972-2.028,4.055,4.055,0,0,1-2.472-3.831,3.9,3.9,0,0,1,1.065-2.967,5.643,5.643,0,0,1,2.623-1.389,13.47,13.47,0,0,1,3.157-.375,11.24,11.24,0,0,1,4.983,1.351,18.855,18.855,0,0,1,4.831,3.456ZM49.6,16.148,40.7,42.961,31.193,22.383H26.476l-9.586,20.88L7.913,16.074,0,16.148,13.618,55.58h5.325l9.511-22.908L38.648,55.58h5.4L57.514,16.148Z" transform="translate(0.407 0.093)" fill="#0e2e47"/>
      <path id="Path_3078" data-name="Path 3078" d="M91.974,11.661v8.17A12.44,12.44,0,0,1,90.3,44.619a12.653,12.653,0,0,1-10.549-5.644,23.48,23.48,0,0,1-4.115,7.782,20.88,20.88,0,0,0,35.507-14.593,20.707,20.707,0,0,0-19.172-20.5" transform="translate(24.988 3.686)" fill="#0e2e47"/>
      <path id="Path_3079" data-name="Path 3079" d="M64.856,44.507A12.439,12.439,0,0,1,66.57,19.725,12.651,12.651,0,0,1,77.119,25.37a23.48,23.48,0,0,1,4.115-7.782A20.879,20.879,0,0,0,45.729,32.181a20.705,20.705,0,0,0,19.127,20.5Z" transform="translate(15.267 3.669)" fill="#0e2e47"/>
      <path id="Path_3080" data-name="Path 3080" d="M92.736,19.843V11.666a20.7,20.7,0,0,0-19.082,20.5,12.519,12.519,0,0,1-10.9,12.326v8.174a20.708,20.708,0,0,0,19.127-20.5,12.517,12.517,0,0,1,10.858-12.32" transform="translate(20.799 3.687)" fill="#0e2e47"/>
    </g>
  </g>
</svg>
