<svg xmlns="http://www.w3.org/2000/svg" xmlns:xlink="http://www.w3.org/1999/xlink" width="114.531" height="100.99" viewBox="0 0 114.531 100.99">
  <defs>
    <clipPath id="clip-path">
      <path id="Path_9676" data-name="Path 9676" d="M0,0H114.531V-100.99H0Z" fill="none"/>
    </clipPath>
    <clipPath id="clip-path-2">
      <path id="Path_9679" data-name="Path 9679" d="M.845-48.69C.845-17.28,24.5-.845,55.912-.845h0c31.409,0,57.774-12.824,57.774-44.234h0c0-31.409-24.56-55.066-55.969-55.066h0C26.308-100.145.845-80.1.845-48.69" fill="none"/>
    </clipPath>
    <clipPath id="clip-path-4">
      <rect id="Rectangle_6744" data-name="Rectangle 6744" width="79.999" height="107.3" transform="translate(42.687 -107.145)" fill="none"/>
    </clipPath>
  </defs>
  <g id="Group_5816" data-name="Group 5816" transform="translate(0 100.99)">
    <g id="Group_5806" data-name="Group 5806" clip-path="url(#clip-path)">
      <g id="Group_5805" data-name="Group 5805" transform="translate(113.686 -45.079)">
        <path id="Path_9675" data-name="Path 9675" d="M0,0C0,31.409-26.365,44.234-57.774,44.234S-112.841,27.8-112.841-3.611s25.463-51.455,56.872-51.455S0-31.409,0,0" fill="#49bf7d"/>
      </g>
    </g>
    <g id="Group_5809" data-name="Group 5809" clip-path="url(#clip-path-2)">
      <g id="Group_5807" data-name="Group 5807" transform="translate(99.242 -66.97)">
        <path id="Path_9677" data-name="Path 9677" d="M0,0C-4.887-3.666-5.91-14.235-5.069-19.749a53.971,53.971,0,0,0-7.05-5.12c.484,1.324,3.433,10.178-3.453,12.682-7.447,2.708-16.926-3.385-23.7,0S-50.778-6.77-47.393,2.031s4.739,13.541-1.354,14.9-6.093-6.77-8.124-14.218S-63.642-5.416-67.027-9.479c-3.349-4.019-.747-15.972-5.937-16.225-12.3,6.682-21.322,17.592-24.659,31.661l.129.136c7.447,1.354,12.864,2.032,13.541,9.479s2.708,14.218,10.832,16.249,11.51,1.354,12.864,10.833.677,10.155,7.448,12.187C-48.227,56.215-45.82,62.3-44.74,66.1c.247,0,.484.025.732.025,2.255,0,4.474-.086,6.67-.221.006-2.377.253-5.675,1.455-7.678,2.031-3.385,14.895-3.385,14.895-8.8s-8.125-7.447-8.8-14.218,13.541-6.77,17.6-4.062,6.771-4.062,3.386-8.8.677-8.124,6.093-8.8S5.416,4.062,0,0" fill="#2fa3da"/>
      </g>
      <g id="Group_5808" data-name="Group 5808" transform="translate(99.242 -66.97)">
        <path id="Path_9678" data-name="Path 9678" d="M0,0C-4.887-3.666-5.91-14.235-5.069-19.749a53.971,53.971,0,0,0-7.05-5.12c.484,1.324,3.433,10.178-3.453,12.682-7.447,2.708-16.926-3.385-23.7,0S-50.778-6.77-47.393,2.031s4.739,13.541-1.354,14.9-6.093-6.77-8.124-14.218S-63.642-5.416-67.027-9.479c-3.349-4.019-.747-15.972-5.937-16.225-12.3,6.682-21.322,17.592-24.659,31.661l.129.136c7.447,1.354,12.864,2.032,13.541,9.479s2.708,14.218,10.832,16.249,11.51,1.354,12.864,10.833.677,10.155,7.448,12.187C-48.227,56.215-45.82,62.3-44.74,66.1c.247,0,.484.025.732.025,2.255,0,4.474-.086,6.67-.221.006-2.377.253-5.675,1.455-7.678,2.031-3.385,14.895-3.385,14.895-8.8s-8.125-7.447-8.8-14.218,13.541-6.77,17.6-4.062,6.771-4.062,3.386-8.8.677-8.124,6.093-8.8S5.416,4.062,0,0Z" fill="none" stroke="#2b2e34" stroke-linecap="round" stroke-linejoin="round" stroke-width="1.69"/>
      </g>
    </g>
    <g id="Group_5815" data-name="Group 5815" clip-path="url(#clip-path)">
      <g id="Group_5810" data-name="Group 5810" transform="translate(113.686 -45.079)">
        <path id="Path_9680" data-name="Path 9680" d="M0,0C0,31.409-26.365,44.234-57.774,44.234S-112.841,27.8-112.841-3.611s25.463-51.455,56.872-51.455S0-31.409,0,0Z" fill="none" stroke="#2b2e34" stroke-linecap="round" stroke-linejoin="round" stroke-width="1.69"/>
      </g>
      <g id="Group_5814" data-name="Group 5814" style="mix-blend-mode: multiply;isolation: isolate">
        <g id="Group_5813" data-name="Group 5813">
          <g id="Group_5812" data-name="Group 5812" clip-path="url(#clip-path-4)">
            <g id="Group_5811" data-name="Group 5811" transform="translate(113.686 -45.079)">
              <path id="Path_9681" data-name="Path 9681" d="M0,0C0-31.409-24.559-55.066-55.969-55.066c-2.037,0-4.047.092-6.029.259C-46.438-44.913-35.961-24.339-35.961.667c0,22.364-8.989,36.315-22.336,43.549.177,0,.346.018.523.018C-26.365,44.234,0,31.409,0,0" fill="#e2e2e3"/>
            </g>
          </g>
        </g>
      </g>
    </g>
  </g>
</svg>
